<svg xmlns="http://www.w3.org/2000/svg" viewBox="0 0 800 450" width="100%" height="100%">
    <style>
        .title { font-family: Arial, sans-serif; font-size: 18px; font-weight: bold; fill: #1e293b; text-anchor: middle; }
        .axis { stroke: #94a3b8; stroke-width: 1.5; }
        .tick { font-family: Arial, sans-serif; font-size: 12px; fill: #475569; }
        .label { font-family: Arial, sans-serif; font-size: 13px; font-weight: bold; fill: #334155; }
        .bar-visobert { fill: #2563eb; }
        .bar-baseline { fill: #64748b; }
        .bar-llm { fill: #d97706; }
        .val { font-family: Arial, sans-serif; font-size: 12px; font-weight: bold; fill: #0f172a; text-anchor: middle; }
        .grid { stroke: #e2e8f0; stroke-dasharray: 4,4; stroke-width: 1; }
    </style>
    
    <!-- Background -->
    <rect width="800" height="450" fill="#ffffff"/>
    
    <!-- Title -->
    <text x="400" y="35" class="title">Figure 1: Scam Recall and Macro-F1 Comparison Across 5 Models (Mean ± Std)</text>
    
    <!-- Grid lines -->
    <line x1="80" y1="80" x2="750" y2="80" class="grid"/>
    <line x1="80" y1="150" x2="750" y2="150" class="grid"/>
    <line x1="80" y1="220" x2="750" y2="220" class="grid"/>
    <line x1="80" y1="290" x2="750" y2="290" class="grid"/>
    <line x1="80" y1="360" x2="750" y2="360" class="axis"/>
    <line x1="80" y1="60" x2="80" y2="360" class="axis"/>
    
    <!-- Y-axis Ticks -->
    <text x="70" y="365" class="tick" text-anchor="end">70%</text>
    <text x="70" y="295" class="tick" text-anchor="end">80%</text>
    <text x="70" y="225" class="tick" text-anchor="end">90%</text>
    <text x="70" y="85" class="tick" text-anchor="end">100%</text>
    
    <!-- Bars (x-base, Scam Recall / F1) -->
    <!-- ViSoBERT (95.62%, 92.51%) -->
    <rect x="110" y="110.6" width="45" height="249.4" class="bar-visobert" rx="3"/>
    <text x="132.5" y="103" class="val">95.6%</text>
    <rect x="160" y="132.4" width="45" height="227.6" fill="#3b82f6" rx="3"/>
    <text x="182.5" y="125" class="val">92.5%</text>
    <text x="157.5" y="385" class="tick" text-anchor="middle" font-weight="bold">ViSoBERT*</text>
    <text x="157.5" y="402" class="tick" text-anchor="middle" fill="#2563eb">(Proposed)</text>

    <!-- PhoBERT-large (92.33%, 92.70%) -->
    <rect x="240" y="133.7" width="45" height="226.3" class="bar-baseline" rx="3"/>
    <text x="262.5" y="126" class="val">92.3%</text>
    <rect x="290" y="131.1" width="45" height="228.9" fill="#94a3b8" rx="3"/>
    <text x="312.5" y="123" class="val">92.7%</text>
    <text x="287.5" y="385" class="tick" text-anchor="middle">PhoBERT-lg</text>
    <text x="287.5" y="402" class="tick" text-anchor="middle">(370M)</text>

    <!-- FPT ViBERT (92.60%, 91.25%) -->
    <rect x="370" y="131.8" width="45" height="228.2" class="bar-baseline" rx="3"/>
    <text x="392.5" y="124" class="val">92.6%</text>
    <rect x="420" y="141.2" width="45" height="218.8" fill="#94a3b8" rx="3"/>
    <text x="442.5" y="133" class="val">91.3%</text>
    <text x="417.5" y="385" class="tick" text-anchor="middle">FPT ViBERT</text>
    <text x="417.5" y="402" class="tick" text-anchor="middle">(124M)</text>

    <!-- PhoBERT-base-v2 (91.23%, 91.23%) -->
    <rect x="500" y="141.4" width="45" height="218.6" class="bar-baseline" rx="3"/>
    <text x="522.5" y="134" class="val">91.2%</text>
    <rect x="550" y="141.4" width="45" height="218.6" fill="#94a3b8" rx="3"/>
    <text x="572.5" y="134" class="val">91.2%</text>
    <text x="547.5" y="385" class="tick" text-anchor="middle">PhoBERT-v2</text>
    <text x="547.5" y="402" class="tick" text-anchor="middle">(135M)</text>

    <!-- Gemini 3.5 Flash (100.0%, 78.38%) -->
    <rect x="630" y="80.0" width="45" height="280.0" class="bar-llm" rx="3"/>
    <text x="652.5" y="72" class="val">100.0%</text>
    <rect x="680" y="231.3" width="45" height="128.7" fill="#f59e0b" rx="3"/>
    <text x="702.5" y="223" class="val">78.4%</text>
    <text x="677.5" y="385" class="tick" text-anchor="middle">Gemini 3.5</text>
    <text x="677.5" y="402" class="tick" text-anchor="middle" fill="#d97706">(Alarm Fatigue)</text>

    <!-- Legend -->
    <rect x="280" y="425" width="15" height="12" fill="#2563eb" rx="2"/>
    <text x="300" y="435" class="tick">Scam Recall (Core Target)</text>
    <rect x="470" y="425" width="15" height="12" fill="#94a3b8" rx="2"/>
    <text x="490" y="435" class="tick">F1-Score</text>
    </svg>